<svg xmlns="http://www.w3.org/2000/svg" width="560" height="544" viewBox="0 0 560 544">
<rect x="0" y="0" width="560" height="544" fill="white"/>
<clipPath id="plotclip"><rect x="58" y="14" width="488" height="488"/></clipPath>
<g clip-path="url(#plotclip)">
<rect x="80.18181818" y="36.18181818" width="443.6363636" height="443.6363636" stroke="rgb(26,26,26)" stroke-width="1" stroke-opacity="0.4" fill="none"/>
<circle cx="91.27272727" cy="468.7272727" r="2.5" stroke="rgb(158,158,158)" stroke-width="1" fill="rgb(158,158,158)"/>
<circle cx="313.0909091" cy="468.7272727" r="2.5" stroke="rgb(158,158,158)" stroke-width="1" fill="rgb(158,158,158)"/>
<circle cx="479.4545455" cy="468.7272727" r="2.5" stroke="rgb(158,158,158)" stroke-width="1" fill="rgb(158,158,158)"/>
<circle cx="91.27272727" cy="313.4545455" r="2.5" stroke="rgb(158,158,158)" stroke-width="1" fill="rgb(158,158,158)"/>
<circle cx="390.7272727" cy="280.1818182" r="3.5" stroke="rgb(26,26,26)" stroke-width="1" fill="rgb(26,26,26)"/>
<circle cx="224.3636364" cy="224.7272727" r="3.5" stroke="rgb(26,26,26)" stroke-width="1" fill="rgb(26,26,26)"/>
<circle cx="91.27272727" cy="91.63636364" r="2.5" stroke="rgb(158,158,158)" stroke-width="1" fill="rgb(158,158,158)"/>
<circle cx="501.6363636" cy="80.54545455" r="2.5" stroke="rgb(158,158,158)" stroke-width="1" fill="rgb(158,158,158)"/>
<circle cx="302" cy="47.27272727" r="2.5" stroke="rgb(158,158,158)" stroke-width="1" fill="rgb(158,158,158)"/>
<circle cx="202.1818182" cy="391.0909091" r="2.5" stroke="rgb(158,158,158)" stroke-width="1" fill="rgb(158,158,158)"/>
<circle cx="512.7272727" cy="335.6363636" r="2.5" stroke="rgb(158,158,158)" stroke-width="1" fill="rgb(158,158,158)"/>
<circle cx="401.8181818" cy="158.1818182" r="2.5" stroke="rgb(158,158,158)" stroke-width="1" fill="rgb(158,158,158)"/>
<circle cx="135.6363636" cy="158.1818182" r="3.5" stroke="rgb(26,26,26)" stroke-width="1" fill="rgb(26,26,26)"/>
<circle cx="512.7272727" cy="213.6363636" r="2.5" stroke="rgb(158,158,158)" stroke-width="1" fill="rgb(158,158,158)"/>
<circle cx="313.0909091" cy="357.8181818" r="3.5" stroke="rgb(26,26,26)" stroke-width="1" fill="rgb(26,26,26)"/>
<circle cx="191.0909091" cy="47.27272727" r="3.5" stroke="rgb(26,26,26)" stroke-width="1" fill="rgb(26,26,26)"/>
<circle cx="401.8181818" cy="58.36363636" r="2.5" stroke="rgb(158,158,158)" stroke-width="1" fill="rgb(158,158,158)"/>
<circle cx="180" cy="468.7272727" r="2.5" stroke="rgb(158,158,158)" stroke-width="1" fill="rgb(158,158,158)"/>
<circle cx="91.27272727" cy="224.7272727" r="2.5" stroke="rgb(158,158,158)" stroke-width="1" fill="rgb(158,158,158)"/>
<circle cx="512.7272727" cy="424.3636364" r="2.5" stroke="rgb(158,158,158)" stroke-width="1" fill="rgb(158,158,158)"/>
<circle cx="412.9090909" cy="391.0909091" r="3.5" stroke="rgb(26,26,26)" stroke-width="1" fill="rgb(26,26,26)"/>
<circle cx="290.9090909" cy="147.0909091" r="3.5" stroke="rgb(26,26,26)" stroke-width="1" fill="rgb(26,26,26)"/>
<circle cx="168.9090909" cy="291.2727273" r="2.5" stroke="rgb(158,158,158)" stroke-width="1" fill="rgb(158,158,158)"/>
<circle cx="479.4545455" cy="147.0909091" r="2.5" stroke="rgb(158,158,158)" stroke-width="1" fill="rgb(158,158,158)"/>
<circle cx="135.6363636" cy="457.6363636" r="2.5" stroke="rgb(158,158,158)" stroke-width="1" fill="rgb(158,158,158)"/>
<circle cx="168.9090909" cy="47.27272727" r="2.5" stroke="rgb(158,158,158)" stroke-width="1" fill="rgb(158,158,158)"/>
<circle cx="302" cy="269.0909091" r="3.5" stroke="rgb(26,26,26)" stroke-width="1" fill="rgb(26,26,26)"/>
<circle cx="91.27272727" cy="391.0909091" r="2.5" stroke="rgb(158,158,158)" stroke-width="1" fill="rgb(158,158,158)"/>
<circle cx="468.3636364" cy="280.1818182" r="2.5" stroke="rgb(158,158,158)" stroke-width="1" fill="rgb(158,158,158)"/>
<circle cx="191.0909091" cy="113.8181818" r="3.5" stroke="rgb(26,26,26)" stroke-width="1" fill="rgb(26,26,26)"/>
<circle cx="457.2727273" cy="47.27272727" r="2.5" stroke="rgb(158,158,158)" stroke-width="1" fill="rgb(158,158,158)"/>
<circle cx="401.8181818" cy="468.7272727" r="2.5" stroke="rgb(158,158,158)" stroke-width="1" fill="rgb(158,158,158)"/>
<circle cx="235.4545455" cy="324.5454545" r="3.5" stroke="rgb(26,26,26)" stroke-width="1" fill="rgb(26,26,26)"/>
<circle cx="346.3636364" cy="102.7272727" r="2.5" stroke="rgb(158,158,158)" stroke-width="1" fill="rgb(158,158,158)"/>
<circle cx="446.1818182" cy="213.6363636" r="2.5" stroke="rgb(158,158,158)" stroke-width="1" fill="rgb(158,158,158)"/>
<circle cx="113.4545455" cy="47.27272727" r="2.5" stroke="rgb(158,158,158)" stroke-width="1" fill="rgb(158,158,158)"/>
<circle cx="102.3636364" cy="435.4545455" r="2.5" stroke="rgb(158,158,158)" stroke-width="1" fill="rgb(158,158,158)"/>
<circle cx="346.3636364" cy="213.6363636" r="3.5" stroke="rgb(26,26,26)" stroke-width="1" fill="rgb(26,26,26)"/>
<circle cx="246.5454545" cy="446.5454545" r="2.5" stroke="rgb(158,158,158)" stroke-width="1" fill="rgb(158,158,158)"/>
<circle cx="246.5454545" cy="80.54545455" r="3.5" stroke="rgb(26,26,26)" stroke-width="1" fill="rgb(26,26,26)"/>
<circle cx="446.1818182" cy="335.6363636" r="3.5" stroke="rgb(26,26,26)" stroke-width="1" fill="rgb(26,26,26)"/>
<circle cx="91.27272727" cy="169.2727273" r="3.5" stroke="rgb(26,26,26)" stroke-width="1" fill="rgb(26,26,26)"/>
<circle cx="512.7272727" cy="47.27272727" r="2.5" stroke="rgb(158,158,158)" stroke-width="1" fill="rgb(158,158,158)"/>
<circle cx="157.8181818" cy="224.7272727" r="3.5" stroke="rgb(26,26,26)" stroke-width="1" fill="rgb(26,26,26)"/>
<circle cx="346.3636364" cy="413.2727273" r="3.5" stroke="rgb(26,26,26)" stroke-width="1" fill="rgb(26,26,26)"/>
<circle cx="435.0909091" cy="102.7272727" r="2.5" stroke="rgb(158,158,158)" stroke-width="1" fill="rgb(158,158,158)"/>
<circle cx="157.8181818" cy="413.2727273" r="2.5" stroke="rgb(158,158,158)" stroke-width="1" fill="rgb(158,158,158)"/>
<circle cx="501.6363636" cy="380" r="2.5" stroke="rgb(158,158,158)" stroke-width="1" fill="rgb(158,158,158)"/>
<circle cx="279.8181818" cy="47.27272727" r="2.5" stroke="rgb(158,158,158)" stroke-width="1" fill="rgb(158,158,158)"/>
<circle cx="146.7272727" cy="346.7272727" r="2.5" stroke="rgb(158,158,158)" stroke-width="1" fill="rgb(158,158,158)"/>
<circle cx="368.5454545" cy="335.6363636" r="3.5" stroke="rgb(26,26,26)" stroke-width="1" fill="rgb(26,26,26)"/>
<circle cx="213.2727273" cy="169.2727273" r="3.5" stroke="rgb(26,26,26)" stroke-width="1" fill="rgb(26,26,26)"/>
<circle cx="390.7272727" cy="102.7272727" r="2.5" stroke="rgb(158,158,158)" stroke-width="1" fill="rgb(158,158,158)"/>
<circle cx="512.7272727" cy="457.6363636" r="2.5" stroke="rgb(158,158,158)" stroke-width="1" fill="rgb(158,158,158)"/>
<circle cx="91.27272727" cy="47.27272727" r="2.5" stroke="rgb(158,158,158)" stroke-width="1" fill="rgb(158,158,158)"/>
<circle cx="257.6363636" cy="380" r="3.5" stroke="rgb(26,26,26)" stroke-width="1" fill="rgb(26,26,26)"/>
<circle cx="346.3636364" cy="158.1818182" r="2.5" stroke="rgb(158,158,158)" stroke-width="1" fill="rgb(158,158,158)"/>
<circle cx="457.2727273" cy="424.3636364" r="2.5" stroke="rgb(158,158,158)" stroke-width="1" fill="rgb(158,158,158)"/>
<circle cx="146.7272727" cy="91.63636364" r="3.5" stroke="rgb(26,26,26)" stroke-width="1" fill="rgb(26,26,26)"/>
<circle cx="512.7272727" cy="180.3636364" r="2.5" stroke="rgb(158,158,158)" stroke-width="1" fill="rgb(158,158,158)"/>
<circle cx="91.27272727" cy="446.5454545" r="2.5" stroke="rgb(158,158,158)" stroke-width="1" fill="rgb(158,158,158)"/>
<circle cx="355.2363636" cy="333.4181818" r="4.5" stroke="rgb(213,94,0)" stroke-width="1" fill="rgb(213,94,0)"/>
<circle cx="204.4" cy="164.8363636" r="4.5" stroke="rgb(213,94,0)" stroke-width="1" fill="rgb(213,94,0)"/>
</g>
<rect x="58" y="14" width="488" height="488" stroke="rgb(60,60,60)" stroke-width="1" fill="none"/>
<polyline points="80.18181818,502 80.18181818,506" stroke="rgb(60,60,60)" stroke-width="1" fill="none"/>
<text x="80.18181818" y="519" font-family="Helvetica,Arial,sans-serif" font-size="11" fill="rgb(60,60,60)" text-anchor="middle">0</text>
<polyline points="168.9090909,502 168.9090909,506" stroke="rgb(60,60,60)" stroke-width="1" fill="none"/>
<text x="168.9090909" y="519" font-family="Helvetica,Arial,sans-serif" font-size="11" fill="rgb(60,60,60)" text-anchor="middle">0.2</text>
<polyline points="257.6363636,502 257.6363636,506" stroke="rgb(60,60,60)" stroke-width="1" fill="none"/>
<text x="257.6363636" y="519" font-family="Helvetica,Arial,sans-serif" font-size="11" fill="rgb(60,60,60)" text-anchor="middle">0.4</text>
<polyline points="346.3636364,502 346.3636364,506" stroke="rgb(60,60,60)" stroke-width="1" fill="none"/>
<text x="346.3636364" y="519" font-family="Helvetica,Arial,sans-serif" font-size="11" fill="rgb(60,60,60)" text-anchor="middle">0.6</text>
<polyline points="435.0909091,502 435.0909091,506" stroke="rgb(60,60,60)" stroke-width="1" fill="none"/>
<text x="435.0909091" y="519" font-family="Helvetica,Arial,sans-serif" font-size="11" fill="rgb(60,60,60)" text-anchor="middle">0.8</text>
<polyline points="523.8181818,502 523.8181818,506" stroke="rgb(60,60,60)" stroke-width="1" fill="none"/>
<text x="523.8181818" y="519" font-family="Helvetica,Arial,sans-serif" font-size="11" fill="rgb(60,60,60)" text-anchor="middle">1</text>
<polyline points="54,479.8181818 58,479.8181818" stroke="rgb(60,60,60)" stroke-width="1" fill="none"/>
<text x="50" y="483.8181818" font-family="Helvetica,Arial,sans-serif" font-size="11" fill="rgb(60,60,60)" text-anchor="end">0</text>
<polyline points="54,391.0909091 58,391.0909091" stroke="rgb(60,60,60)" stroke-width="1" fill="none"/>
<text x="50" y="395.0909091" font-family="Helvetica,Arial,sans-serif" font-size="11" fill="rgb(60,60,60)" text-anchor="end">0.2</text>
<polyline points="54,302.3636364 58,302.3636364" stroke="rgb(60,60,60)" stroke-width="1" fill="none"/>
<text x="50" y="306.3636364" font-family="Helvetica,Arial,sans-serif" font-size="11" fill="rgb(60,60,60)" text-anchor="end">0.4</text>
<polyline points="54,213.6363636 58,213.6363636" stroke="rgb(60,60,60)" stroke-width="1" fill="none"/>
<text x="50" y="217.6363636" font-family="Helvetica,Arial,sans-serif" font-size="11" fill="rgb(60,60,60)" text-anchor="end">0.6</text>
<polyline points="54,124.9090909 58,124.9090909" stroke="rgb(60,60,60)" stroke-width="1" fill="none"/>
<text x="50" y="128.9090909" font-family="Helvetica,Arial,sans-serif" font-size="11" fill="rgb(60,60,60)" text-anchor="end">0.8</text>
<polyline points="54,36.18181818 58,36.18181818" stroke="rgb(60,60,60)" stroke-width="1" fill="none"/>
<text x="50" y="40.18181818" font-family="Helvetica,Arial,sans-serif" font-size="11" fill="rgb(60,60,60)" text-anchor="end">1</text>
</svg>
